<?xml version="1.0" encoding="utf-8"?>
<!-- Generator: Adobe Illustrator 24.1.0, SVG Export Plug-In . SVG Version: 6.00 Build 0)  -->
<svg version="1.1" id="Layer_1" xmlns="http://www.w3.org/2000/svg" xmlns:xlink="http://www.w3.org/1999/xlink" x="0px" y="0px"
	 viewBox="0 0 100 125" style="enable-background:new 0 0 100 125;" xml:space="preserve">
<style type="text/css">
	.st0{fill:#FF7300;}
</style>
<path class="st0" d="M32.3,45.3c-0.4-0.6-1-0.9-1.7-0.9c-0.4,0-0.7,0.1-1.1,0.3c-0.9,0.6-1.2,1.8-0.6,2.8c1.8,2.9,4.9,4.6,8.3,4.6
	s6.4-1.7,8.3-4.6c0.6-0.9,0.3-2.2-0.6-2.8c-0.9-0.6-2.2-0.3-2.8,0.6C41,47,39.2,48,37.2,48S33.4,47,32.3,45.3z M62.8,52
	c3.4,0,6.4-1.7,8.3-4.6c0.6-0.9,0.3-2.2-0.6-2.8c-0.9-0.6-2.2-0.3-2.8,0.6C66.6,47,64.8,48,62.8,48c-2,0-3.8-1-4.9-2.7
	c-0.4-0.6-1-0.9-1.7-0.9c-0.4,0-0.7,0.1-1.1,0.3c-0.9,0.6-1.2,1.8-0.6,2.8C56.4,50.3,59.4,52,62.8,52z M81.3,45.3
	c-2.5-9.3-9.1-17.1-18.1-21.1c-0.8-5.9-5.9-10.5-12.1-10.5c-5.8,0-10.8,4.1-11.9,9.6c-10.2,3.6-17.6,11.9-20.4,22
	c-4.4,0.4-7.8,4.1-7.8,8.6c0,4.5,3.4,8.2,7.8,8.6C22.5,76.2,35.1,86.3,50,86.3s27.5-10.1,31.3-23.9c4.4-0.4,7.8-4.1,7.8-8.6
	C89.1,49.4,85.6,45.7,81.3,45.3z M17.8,58.2c-1.7-0.7-2.9-2.3-2.9-4.3c0-2,1.2-3.6,2.9-4.3c-0.2,1.4-0.3,2.8-0.3,4.3
	S17.7,56.8,17.8,58.2z M54.5,23.8c0-1.1-0.9-2-2-2c-3.9,0-7.1,3.2-7.1,7.1c0,4,3.4,7.1,7.8,7.1c4.4,0,8.3-3.2,9.6-7.4
	c9.6,4.8,15.6,14.5,15.6,25.4c0,15.7-12.8,28.4-28.4,28.4S21.6,69.6,21.6,53.9c0-12.5,8-23.4,19.9-27.1c0.8-0.2,1.3-0.9,1.4-1.7
	c0.4-4.2,4-7.4,8.2-7.4c4.4,0,8,3.4,8.2,7.8c0,0,0,0.1,0,0.1c0,0,0,0,0,0.1c0,3.4-2.7,6.3-6,6.3c-2.1,0-3.8-1.4-3.8-3.1 M82.1,58.2
	c0.2-1.4,0.3-2.8,0.3-4.3c0-1.5-0.1-2.9-0.3-4.3c1.7,0.7,2.9,2.3,2.9,4.3S83.9,57.5,82.1,58.2z"/>
<path class="st0" d="M50.2,66.2c-3.4-0.1-6.5,1.5-8.4,4.3c-0.6,0.9-0.4,2.2,0.5,2.8c0.9,0.6,2.2,0.4,2.8-0.5c1.1-1.7,3-2.6,5-2.5
	c2,0.1,3.8,1.2,4.8,2.9c0.4,0.6,1,1,1.7,1c0.4,0,0.7-0.1,1.1-0.3c1-0.6,1.3-1.8,0.7-2.7C56.6,68.1,53.6,66.3,50.2,66.2z"/>
</svg>
