<?xml version="1.0" encoding="utf-8"?>
<!-- Generator: Adobe Illustrator 24.1.0, SVG Export Plug-In . SVG Version: 6.00 Build 0)  -->
<svg version="1.1" id="Layer_1" xmlns="http://www.w3.org/2000/svg" xmlns:xlink="http://www.w3.org/1999/xlink" x="0px" y="0px"
	 viewBox="0 0 32 40" style="enable-background:new 0 0 32 40;" xml:space="preserve">
<style type="text/css">
	.st0{fill:#25E81A;}
</style>
<g>
	<circle class="st0" cx="16" cy="23" r="1"/>
	<path class="st0" d="M28.4,13.1C26.7,7.7,21.7,4,16,4h-0.1l-1-2.4c-0.1-0.3-0.4-0.6-0.7-0.6c-0.4-0.1-0.7,0.1-0.9,0.4L11,4.2
		C9.4,3.6,7.7,4.4,7.2,6H4C3.7,6,3.4,6.2,3.2,6.4C3,6.7,2.9,7.1,3.1,7.4L4.5,11c-0.4,0.7-0.7,1.4-0.9,2.2c-1.9,0.5-3,2.4-2.5,4.3
		c0.3,1.1,1.1,2,2.2,2.4c1.6,7,8.5,11.4,15.5,9.9c4.9-1.1,8.8-4.9,9.9-9.9c1.8-0.6,2.8-2.6,2.1-4.5C30.4,14.3,29.5,13.5,28.4,13.1
		L28.4,13.1z M9.4,7.8L9.4,7.8C9.3,7.7,9.2,7.6,9.1,7.4C9.1,7.3,9,7.2,9,7c0-0.6,0.4-1,1-1c0.2,0,0.5,0.1,0.6,0.2l0.2,0.2l0,0
		C10.9,6.6,11,6.8,11,7c0,0.6-0.4,1-1,1C9.8,8,9.6,7.9,9.4,7.8L9.4,7.8z M13,17L13,17c0.6,0,1,0.4,1,1s-0.4,1-1,1s-1-0.4-1-1
		S12.4,17,13,17z M13.7,4l0.1,0.2L14.5,6h-1.7c-0.1-0.2-0.2-0.4-0.3-0.6l0.9-1.2L13.7,4z M5.5,8h1.7c0,0.1,0.1,0.2,0.1,0.3
		c0,0.1,0.1,0.2,0.2,0.3L6.3,10L5.8,8.9L5.5,8z M19,24h-0.2c-0.5,1.6-2.3,2.4-3.8,1.8c-0.9-0.3-1.5-1-1.8-1.8c-0.1,0-0.1,0-0.2,0
		c-0.6,0-1-0.4-1-1s0.4-1,1-1l0,0c0.1,0,0.1,0,0.2,0c0.5-1.6,2.3-2.4,3.8-1.8c0.9,0.3,1.5,1,1.8,1.8H19l0,0c0.6,0,1,0.4,1,1
		S19.6,24,19,24z M19,19c-0.6,0-1-0.4-1-1s0.4-1,1-1l0,0c0.6,0,1,0.4,1,1S19.6,19,19,19z"/>
</g>
</svg>
