<svg xmlns="http://www.w3.org/2000/svg" xmlns:xlink="http://www.w3.org/1999/xlink" version="1.1" x="0px" y="0px" viewBox="0 0 128 160" style="enable-background:new 0 0 128 128;" xml:space="preserve"><path d="M118,62.006c0-5.198-1.91-9.951-5.05-13.621c-0.503-12.669-5.725-24.504-14.764-33.379C88.985,5.974,76.845,1,64,1  S39.015,5.974,29.814,15.005c-9.04,8.875-14.262,20.71-14.764,33.379C11.91,52.055,10,56.808,10,62.006  c0,10.681,8.024,19.506,18.357,20.81l14.216,19.547L25.242,98.03c-0.536-0.138-1.078,0.19-1.212,0.728  c-0.135,0.535,0.191,1.078,0.728,1.212l19.647,4.912l2.403,3.304l-16.972,2.829c-0.545,0.091-0.913,0.606-0.822,1.15  c0.081,0.489,0.505,0.836,0.985,0.836c0.055,0,0.109-0.004,0.165-0.014l17.959-2.993l2.485,3.417l-19.924,6.641  c-0.523,0.174-0.807,0.74-0.632,1.265C30.191,121.735,30.581,122,31,122c0.104,0,0.211-0.017,0.316-0.052l20.525-6.842l6.176,8.492  l0.707,0.979C60.057,126.117,61.979,127,64,127s3.943-0.883,5.332-2.494l6.832-9.397l20.519,6.84C96.789,121.983,96.896,122,97,122  c0.419,0,0.809-0.265,0.948-0.684c0.175-0.524-0.108-1.091-0.632-1.265l-19.919-6.64l2.485-3.418l17.953,2.992  c0.056,0.01,0.11,0.014,0.165,0.014c0.48,0,0.904-0.347,0.985-0.836c0.091-0.544-0.277-1.06-0.822-1.15l-16.967-2.828l2.404-3.306  l19.641-4.91c0.536-0.134,0.862-0.677,0.728-1.212c-0.134-0.536-0.679-0.864-1.212-0.728l-17.326,4.331l14.211-19.546  C109.976,81.512,118,72.687,118,62.006z M97.006,81c-10.138,0-18.422-7.99-18.944-18H90.08c0.488,3.386,3.401,6,6.92,6  s6.432-2.614,6.92-6h12.03C115.428,73.01,107.144,81,97.006,81z M78.063,61c0.528-10.005,8.809-17.988,18.943-17.988  S115.421,50.995,115.949,61H78.063z M101.899,63c-0.465,2.279-2.484,4-4.899,4s-4.434-1.721-4.899-4H101.899z M31.216,16.433  C40.039,7.771,51.683,3,64,3s23.961,4.771,32.784,13.433c8.141,7.992,13.055,18.487,14.028,29.797  c-3.695-3.238-8.519-5.218-13.806-5.218c-11.576,0-20.994,9.418-20.994,20.994c0,9.64,6.539,17.762,15.409,20.216  C83.885,85.994,74.479,88,64,88c-10.476,0-19.88-2.005-27.421-5.778c8.87-2.454,15.409-10.577,15.409-20.216  c0-11.576-9.418-20.994-20.994-20.994c-5.288,0-10.111,1.98-13.806,5.218C18.161,34.919,23.075,24.424,31.216,16.433z M12.051,61  c0.528-10.005,8.809-17.988,18.943-17.988S49.41,50.995,49.937,61H12.051z M35.899,63c-0.465,2.279-2.484,4-4.899,4  s-4.434-1.721-4.899-4H35.899z M12.05,63h12.03c0.488,3.386,3.401,6,6.92,6s6.432-2.614,6.92-6h12.018  c-0.522,10.01-8.806,18-18.944,18S12.572,73.01,12.05,63z M68.357,122.433l-0.594,0.836C66.811,124.369,65.439,125,64,125  s-2.811-0.631-3.707-1.66l-3.207-4.411c1.099-2.956,3.815-4.929,6.889-4.929c3.088,0,5.815,1.988,6.905,4.965L68.357,122.433z   M72.246,117.086c-1.62-3.097-4.768-5.086-8.271-5.086c-3.491,0-6.627,1.976-8.252,5.054L30.962,82.998  c0.011,0,0.021,0.002,0.032,0.002c0.83,0,1.645-0.061,2.45-0.156l0.042,0.024C41.636,87.534,52.187,90,64,90  s22.364-2.466,30.489-7.119l0.068-0.036C95.362,82.939,96.176,83,97.006,83c0.011,0,0.021-0.002,0.032-0.002L72.246,117.086z"/><text x="0" y="143" fill="#FFFFFF" font-size="5px" font-weight="bold" font-family="'Helvetica Neue', Helvetica, Arial-Unicode, Arial, Sans-serif">Created by Amethyst Studio</text><text x="0" y="148" fill="#FFFFFF" font-size="5px" font-weight="bold" font-family="'Helvetica Neue', Helvetica, Arial-Unicode, Arial, Sans-serif">from the Noun Project</text></svg>