<svg xmlns="http://www.w3.org/2000/svg" viewBox="0 0 32 40" x="0px" y="0px"><title>baby girl, daughter, kids, baby</title><g data-name="04"><circle cx="16" cy="23" r="1"/><path d="M28.41,13.12A13,13,0,0,0,16,4h-.12l-1-2.37A1,1,0,0,0,14.15,1a1,1,0,0,0-.93.37L11,4.17A3,3,0,0,0,7.18,6H4a1,1,0,0,0-.83.44,1,1,0,0,0-.1.93L4.5,11a12.59,12.59,0,0,0-.91,2.17,3.49,3.49,0,0,0-.28,6.66,13,13,0,0,0,25.38,0,3.49,3.49,0,0,0-.28-6.66Zm-19-5.33h0a1.21,1.21,0,0,1-.28-.36A1,1,0,0,1,9,7a1,1,0,0,1,1-1,1,1,0,0,1,.63.23l.17.17,0,0A.9.9,0,0,1,11,7a1,1,0,0,1-1,1A1,1,0,0,1,9.39,7.79ZM13,17h0a1,1,0,1,1-1,1A1,1,0,0,1,13,17Zm.71-13,.09.22L14.52,6H12.83a3.1,3.1,0,0,0-.28-.58l.94-1.17ZM5.48,8H7.17c0,.1.08.2.13.3a2.54,2.54,0,0,0,.16.28L6.29,10,5.84,8.91ZM19,24l-.18,0a3,3,0,0,1-5.66,0A.44.44,0,0,1,13,24a1,1,0,1,1,0-2h0a.44.44,0,0,1,.16,0,3,3,0,0,1,5.66,0L19,22h0a1,1,0,1,1,0,2Zm0-5a1,1,0,1,1,0-2h0a1,1,0,1,1,0,2Z"/></g><text x="0" y="47" fill="#000000" font-size="5px" font-weight="bold" font-family="'Helvetica Neue', Helvetica, Arial-Unicode, Arial, Sans-serif">Created by Kantor Tegalsari</text><text x="0" y="52" fill="#000000" font-size="5px" font-weight="bold" font-family="'Helvetica Neue', Helvetica, Arial-Unicode, Arial, Sans-serif">from the Noun Project</text></svg>