<svg xmlns="http://www.w3.org/2000/svg" data-name="Layer 1" viewBox="0 0 48 60" x="0px" y="0px"><title>pin roller_1</title><path d="M13.36,9.81,9.81,13.36A61.45,61.45,0,0,0,3.87,9.52a7.82,7.82,0,0,1-1.68-1.3C-.15,5.88-.7,2.63,1,1S5.88-.15,8.22,2.19a7.82,7.82,0,0,1,1.3,1.68A61.45,61.45,0,0,0,13.36,9.81Zm32.45,30a7.82,7.82,0,0,0-1.68-1.3,61.45,61.45,0,0,1-5.94-3.84l-3.55,3.55a61.45,61.45,0,0,1,3.84,5.94,7.82,7.82,0,0,0,1.3,1.68C42.12,48.15,45.37,48.7,47,47S48.15,42.12,45.81,39.78ZM15.59,10.41l-5.18,5.18a2,2,0,0,0,0,2.82L29.59,37.59a2,2,0,0,0,2.82,0l5.18-5.18a2,2,0,0,0,0-2.82L18.41,10.41A2,2,0,0,0,15.59,10.41Z"/><text x="0" y="63" fill="#000000" font-size="5px" font-weight="bold" font-family="'Helvetica Neue', Helvetica, Arial-Unicode, Arial, Sans-serif">Created by Mello</text><text x="0" y="68" fill="#000000" font-size="5px" font-weight="bold" font-family="'Helvetica Neue', Helvetica, Arial-Unicode, Arial, Sans-serif">from the Noun Project</text></svg>