<svg xmlns="http://www.w3.org/2000/svg" xmlns:xlink="http://www.w3.org/1999/xlink" version="1.1" x="0px" y="0px" viewBox="0 0 100 125" enable-background="#0000FF" xml:space="preserve"><path d="M58.905,64.229l-1.465,0.332c-1.021-3.137-3.969-5.412-7.441-5.412s-6.421,2.275-7.441,5.412l-1.465-0.332  c-1.077-0.24-2.148,0.432-2.392,1.512c-0.243,1.076,0.434,2.146,1.511,2.391l2.136,0.482c0.756,3.531,3.898,6.188,7.651,6.188  s6.896-2.656,7.651-6.188l2.136-0.482c1.077-0.244,1.754-1.314,1.511-2.391C61.054,64.661,59.979,63.991,58.905,64.229z   M49.999,70.802c-2.11,0-3.827-1.717-3.827-3.826s1.717-3.826,3.827-3.826s3.827,1.717,3.827,3.826S52.109,70.802,49.999,70.802z   M42.082,51.072c0.381,0.601,1.028,0.929,1.69,0.929c0.366,0,0.737-0.102,1.07-0.313c0.933-0.592,1.208-1.828,0.616-2.761  c-1.818-2.864-4.909-4.574-8.267-4.574s-6.448,1.71-8.267,4.574c-0.592,0.933-0.316,2.169,0.616,2.761  c0.935,0.592,2.169,0.316,2.761-0.616c1.081-1.702,2.908-2.719,4.89-2.719S41.001,49.37,42.082,51.072z M62.806,44.354  c-3.357,0-6.448,1.71-8.267,4.574c-0.592,0.933-0.316,2.169,0.616,2.761c0.935,0.592,2.169,0.316,2.761-0.616  c1.081-1.702,2.908-2.719,4.89-2.719s3.809,1.017,4.89,2.719c0.381,0.601,1.028,0.929,1.69,0.929c0.366,0,0.737-0.102,1.07-0.313  c0.933-0.592,1.208-1.828,0.616-2.761C69.254,46.063,66.163,44.354,62.806,44.354z M81.284,45.294  c-2.521-9.285-9.055-17.059-18.123-21.076c-0.82-5.947-5.938-10.543-12.107-10.543c-5.833,0-10.757,4.059-11.947,9.636  c-10.172,3.612-17.646,11.888-20.388,21.982c-4.366,0.423-7.792,4.111-7.792,8.589c0,4.475,3.425,8.162,7.791,8.586  c3.774,13.734,16.364,23.857,31.281,23.857S77.506,76.202,81.28,62.468c4.366-0.422,7.792-4.111,7.792-8.588  C89.072,49.406,85.648,45.718,81.284,45.294z M17.849,58.175c-1.708-0.682-2.922-2.346-2.922-4.293c0-1.953,1.218-3.618,2.931-4.298  c-0.186,1.411-0.302,2.843-0.302,4.298S17.662,56.769,17.849,58.175z M49.999,82.325c-15.684,0-28.443-12.76-28.443-28.443  c0-12.505,8.009-23.416,19.93-27.15c0.762-0.238,1.309-0.906,1.392-1.701c0.438-4.193,3.952-7.355,8.177-7.355  c4.381,0,7.972,3.442,8.21,7.764c-0.002,0.025,0.003,0.051,0.002,0.076c0,0.025-0.007,0.048-0.007,0.072  c0,3.432-2.749,6.33-6.004,6.33c-2.13,0-3.798-1.354-3.798-3.084c0-1.7,1.383-3.083,3.083-3.083c1.104,0,2-0.896,2-2s-0.896-2-2-2  c-3.905,0-7.083,3.177-7.083,7.083c0,3.973,3.425,7.084,7.798,7.084c4.446,0,8.322-3.182,9.575-7.414  c9.557,4.814,15.612,14.512,15.612,25.379C78.442,69.565,65.683,82.325,49.999,82.325z M82.149,58.175  c0.187-1.406,0.293-2.838,0.293-4.293c0-1.453-0.108-2.886-0.294-4.296c1.71,0.681,2.924,2.345,2.924,4.294  S83.858,57.493,82.149,58.175z"/><text x="0" y="115" fill="#0000FF" font-size="5px" font-weight="bold" font-family="'Helvetica Neue', Helvetica, Arial-Unicode, Arial, Sans-serif"></text><text x="0" y="120" fill="#0000FF	" font-size="5px" font-weight="bold" font-family="'Helvetica Neue', Helvetica, Arial-Unicode, Arial, Sans-serif"></text></svg>
